<svg width="52" height="52" viewBox="0 0 52 52" fill="none" xmlns="http://www.w3.org/2000/svg">
<rect width="52" height="52" rx="26" fill="#BDBDBD"/>
<path fill-rule="evenodd" clip-rule="evenodd" d="M33.072 18.5071C33.124 18.598 33.215 18.663 33.332 18.663C36.452 18.663 39 21.2081 39 24.3247V32.0381C39 35.1546 36.452 37.6998 33.332 37.6998H18.668C15.535 37.6998 13 35.1546 13 32.0381V24.3247C13 21.2081 15.535 18.663 18.668 18.663C18.772 18.663 18.876 18.611 18.915 18.5071L18.993 18.3513C19.0378 18.257 19.0838 18.1601 19.1305 18.0617C19.4631 17.3612 19.831 16.5862 20.059 16.1308C20.657 14.9621 21.671 14.3128 22.932 14.2998H29.055C30.316 14.3128 31.343 14.9621 31.941 16.1308C32.1458 16.5398 32.4577 17.1987 32.7584 17.8338C32.8204 17.9648 32.882 18.0948 32.942 18.2214L33.072 18.5071ZM32.123 23.4936C32.123 24.1429 32.643 24.6623 33.293 24.6623C33.943 24.6623 34.476 24.1429 34.476 23.4936C34.476 22.8443 33.943 22.3119 33.293 22.3119C32.643 22.3119 32.123 22.8443 32.123 23.4936ZM23.751 25.5064C24.362 24.896 25.155 24.5714 26 24.5714C26.845 24.5714 27.638 24.896 28.236 25.4934C28.834 26.0907 29.159 26.8828 29.159 27.7269C29.146 29.467 27.742 30.8824 26 30.8824C25.155 30.8824 24.362 30.5577 23.764 29.9604C23.166 29.3631 22.841 28.5709 22.841 27.7269V27.7139C22.828 26.8958 23.153 26.1037 23.751 25.5064ZM29.601 31.3369C28.678 32.2589 27.404 32.8302 26 32.8302C24.635 32.8302 23.361 32.2978 22.386 31.3369C21.424 30.363 20.891 29.0904 20.891 27.7269C20.878 26.3764 21.411 25.1038 22.373 24.1299C23.348 23.156 24.635 22.6236 26 22.6236C27.365 22.6236 28.652 23.156 29.614 24.1169C30.576 25.0908 31.109 26.3764 31.109 27.7269C31.096 29.1423 30.524 30.4149 29.601 31.3369Z" fill="#FAFAFA"/>
</svg>
