<svg width="28" height="28" viewBox="0 0 28 28" fill="none" xmlns="http://www.w3.org/2000/svg">
<rect width="28" height="28" rx="14" fill="#D0B3F6"/>
<path d="M8.5 16C8.5 17.4587 9.07946 18.8577 10.1109 19.8891C11.1424 20.9205 12.5413 21.5 14 21.5C15.4587 21.5 16.8577 20.9205 17.8891 19.8891C18.9205 18.8577 19.5 17.4587 19.5 16C19.5 14.5413 18.9205 13.1423 17.8891 12.1109C16.8577 11.0795 15.4587 10.5 14 10.5C12.5413 10.5 11.1424 11.0795 10.1109 12.1109C9.07946 13.1423 8.5 14.5413 8.5 16Z" stroke="#6201E0" stroke-width="1.5" stroke-linecap="round" stroke-linejoin="round"/>
<path d="M12.5 16C12.5 16.3978 12.658 16.7793 12.9393 17.0607C13.2207 17.3419 13.6022 17.5 14 17.5C14.3978 17.5 14.7793 17.3419 15.0607 17.0607C15.3419 16.7793 15.5 16.3978 15.5 16C15.5 15.6022 15.3419 15.2207 15.0607 14.9393C14.7793 14.6581 14.3978 14.5 14 14.5C13.6022 14.5 13.2207 14.6581 12.9393 14.9393C12.658 15.2207 12.5 15.6022 12.5 16Z" stroke="#6201E0" stroke-width="1.5"/>
<path d="M10.5 11.7567V10C10.5 9.07174 10.8687 8.18151 11.5251 7.52513C12.1815 6.86875 13.0717 6.5 14 6.5C14.9283 6.5 15.8185 6.86875 16.4749 7.52513C17.1313 8.18151 17.5 9.07174 17.5 10V11.7567" stroke="#6201E0" stroke-width="1.5" stroke-linecap="round" stroke-linejoin="round"/>
</svg>
