<svg width="28" height="28" viewBox="0 0 28 28" fill="none" xmlns="http://www.w3.org/2000/svg">
<rect width="28" height="28" rx="14" fill="#D0B3F6"/>
<path d="M10 10.5C10 11.5609 10.4214 12.5783 11.1716 13.3284C11.9217 14.0786 12.9391 14.5 14 14.5C15.0609 14.5 16.0783 14.0786 16.8284 13.3284C17.5786 12.5783 18 11.5609 18 10.5C18 9.43913 17.5786 8.42172 16.8284 7.67157C16.0783 6.92143 15.0609 6.5 14 6.5C12.9391 6.5 11.9217 6.92143 11.1716 7.67157C10.4214 8.42172 10 9.43913 10 10.5Z" stroke="#6201E0" stroke-width="1.5" stroke-linecap="round" stroke-linejoin="round"/>
<path d="M20 20.7499C20 17.4362 17.3137 14.75 14 14.75C10.6863 14.75 8 17.4362 8 20.7499" stroke="#6201E0" stroke-width="1.5" stroke-linecap="round"/>
</svg>
